<?xml version="1.0" encoding="UTF-8" standalone="no"?>
<!-- Created with Inkscape (http://www.inkscape.org/) -->

<svg
   width="554"
   height="186"
   viewBox="0 0 146.57916 49.2125"
   version="1.1"
   id="svg1"
   xml:space="preserve"
   sodipodi:docname="drawing.svg"
   inkscape:version="1.3.2 (091e20e, 2023-11-25)"
   inkscape:export-filename="drawing.png"
   inkscape:export-xdpi="96"
   inkscape:export-ydpi="96"
   xmlns:inkscape="http://www.inkscape.org/namespaces/inkscape"
   xmlns:sodipodi="http://sodipodi.sourceforge.net/DTD/sodipodi-0.dtd"
   xmlns="http://www.w3.org/2000/svg"
   xmlns:svg="http://www.w3.org/2000/svg"><sodipodi:namedview
     id="namedview1"
     pagecolor="#ffffff"
     bordercolor="#000000"
     borderopacity="0.25"
     inkscape:showpageshadow="2"
     inkscape:pageopacity="0.0"
     inkscape:pagecheckerboard="0"
     inkscape:deskcolor="#d1d1d1"
     inkscape:document-units="mm"
     inkscape:zoom="1.4001386"
     inkscape:cx="252.83211"
     inkscape:cy="144.62854"
     inkscape:window-width="1472"
     inkscape:window-height="816"
     inkscape:window-x="0"
     inkscape:window-y="38"
     inkscape:window-maximized="0"
     inkscape:current-layer="layer1" /><defs
     id="defs1" /><g
     inkscape:label="Layer 1"
     inkscape:groupmode="layer"
     id="layer1"
     transform="translate(-34.514103,-100.71203)"><rect
       style="opacity:1;fill:#000000;stroke-width:73.009"
       id="rect1"
       width="146.57916"
       height="49.212502"
       x="34.514103"
       y="100.71203"
       ry="9.7129936" /><path
       fill="#1bd96a"
       d="m 59.078011,108.39078 a 16.622889,16.605956 0 0 0 -12.587111,5.26344 15.522222,15.522222 0 0 0 -3.062111,4.38856 16.044333,16.028811 0 0 0 -1.636889,7.29403 c 0,2.00378 0.239889,3.52778 0.846667,5.31989 0.338667,1.07103 1.086555,2.6797 1.651,3.5687 a 17.356667,17.353844 0 0 0 12.488333,7.95726 c 0.620889,0.0706 3.584222,0.0988 3.894667,0.0282 0.282222,-0.0564 0.310444,0.14111 -0.366889,-2.39889 l -0.508,-1.93322 -1.425222,-0.0847 a 11.994444,11.978922 0 0 1 -7.309556,-2.54 7.4788889,7.4788889 0 0 1 -1.834444,-1.778 c 0,-0.0706 0.479778,-0.39512 1.044222,-0.70556 a 53.018267,52.980167 0 0 1 4.064,-2.2987 c 0.04233,0 0.705556,0.635 1.495778,1.38289 l 1.411111,1.36878 2.921,-0.60678 2.906889,-0.60678 2.074333,-2.07433 c 1.128889,-1.12889 2.088446,-2.11666 2.088446,-2.14489 0,-0.127 -0.592668,-2.30011 -0.649113,-2.39888 -0.05644,-0.0847 -0.282222,-0.0423 -1.439333,0.254 -0.747889,0.18344 -1.693333,0.42333 -2.046111,0.56444 l -0.677333,0.21167 -0.747889,0.74789 -0.747889,0.74788 -1.312333,0.14112 -1.312334,0.0988 -0.733778,-0.70556 a 3.81,3.81 0 0 1 -1.354666,-2.39889 l -0.183445,-0.84667 0.606778,-0.80433 c 0.959556,-1.27 0.959556,-1.27 2.060222,-1.55222 0.564445,-0.14111 0.917223,-0.28222 1.171223,-0.46567 0.183444,-0.1397 0.917222,-0.81703 1.608666,-1.50848 l 1.27,-1.27 -0.987778,-0.98777 -0.987777,-0.98778 -2.751667,0.762 c -1.509889,0.42333 -2.765778,0.74789 -2.779889,0.74789 -0.04233,0 -3.146778,3.49955 -3.711222,4.191 l -0.409222,0.49388 0.395111,1.45345 c 0.225778,0.79022 0.423333,1.63689 0.437444,1.89089 l 0.04233,0.42333 -0.479778,0.32456 c -0.522111,0.32455 -3.132667,1.83444 -4.007556,2.30011 -0.508,0.28222 -0.522111,0.28222 -0.620889,0.14111 -0.112885,-0.14111 -0.324551,-0.84667 -0.451551,-1.45345 -0.254,-1.21355 -0.239889,-3.88055 0.02822,-5.26344 a 12.474222,12.474222 0 0 1 11.147778,-9.779 c 0.606778,-0.0423 1.086555,-0.11289 1.100666,-0.14111 0.08467,-0.23989 0.705556,-4.23192 0.663223,-4.28837 -0.01411,-0.0282 -0.141111,-0.0282 -0.282223,-0.0423 z m 5.192889,0.94544 c -0.282222,0 -0.423333,0.14111 -0.522111,0.53623 -0.08467,0.32455 -0.649111,3.41488 -0.649111,3.556 0,0.0564 0.141111,0.15522 0.310444,0.22577 a 12.008556,11.993033 0 0 1 4.219223,2.82223 11.825111,11.8237 0 0 1 3.048,4.86692 9.7366667,9.7366667 0 0 1 0.56444,3.95111 c 0,1.50989 0,1.79211 -0.14111,2.44122 a 13.264444,13.264444 0 0 1 -2.48355,5.31848 c -0.45156,0.56444 -1.38289,1.49578 -1.933225,1.94733 -0.536222,0.45156 -2.173111,1.55222 -2.398889,1.60867 -0.141111,0.0423 -0.141111,0.0847 -0.09878,0.36689 0.04233,0.254 0.903111,3.61244 0.987777,3.92289 l 0.08467,0.0847 a 17.032111,17.015178 0 0 0 10.258777,-13.26445 c 0.18345,-1.08656 0.18345,-3.64067 0,-4.79778 a 16.876889,16.859956 0 0 0 -8.08567,-12.10451 c -0.987774,-0.59267 -2.892774,-1.49578 -3.174996,-1.49578 z"
       id="path1"
       style="stroke-width:1.41111" /><text
       xml:space="preserve"
       style="font-style:normal;font-variant:normal;font-weight:200;font-stretch:normal;font-size:7.05556px;font-family:'Hiragino Sans';-inkscape-font-specification:'Hiragino Sans Ultra-Light';text-align:center;text-anchor:middle;opacity:1;fill:#000000;stroke-width:55.4204"
       x="107.71772"
       y="118.25214"
       id="text1"><tspan
         sodipodi:role="line"
         id="tspan1"
         style="font-style:normal;font-variant:normal;font-weight:200;font-stretch:normal;font-size:7.05556px;font-family:'Hiragino Sans';-inkscape-font-specification:'Hiragino Sans Ultra-Light';fill:#ffffff;fill-opacity:1;stroke-width:55.4204"
         x="107.71772"
         y="118.25214">Download it on</tspan></text><text
       xml:space="preserve"
       style="font-style:normal;font-variant:normal;font-weight:normal;font-stretch:normal;font-size:16.9333px;font-family:'Hiragino Kaku Gothic StdN';-inkscape-font-specification:'Hiragino Kaku Gothic StdN';text-align:center;text-anchor:middle;opacity:1;fill:#ffffff;fill-opacity:1;stroke-width:55.4204"
       x="127.30637"
       y="136.86359"
       id="text2"><tspan
         sodipodi:role="line"
         id="tspan2"
         style="font-style:normal;font-variant:normal;font-weight:normal;font-stretch:normal;font-size:16.9333px;font-family:'Hiragino Kaku Gothic StdN';-inkscape-font-specification:'Hiragino Kaku Gothic StdN';stroke-width:55.4204"
         x="127.30637"
         y="136.86359">Modrinth</tspan></text></g></svg>
